<?xml version="1.0" encoding="UTF-8"?><svg id="Layer_1" xmlns="http://www.w3.org/2000/svg" width="256" height="256" viewBox="0 0 256 256"><defs><style>.cls-1{fill:none;}.cls-2{fill:#72c5e7;}</style></defs><rect class="cls-1" x="32" y="32" width="192" height="192"/><path d="m207.09,208H48.91c-9.32,0-16.91-7.59-16.91-16.91v-11.09h192v11.09c0,9.33-7.59,16.91-16.91,16.91Zm-167.09-20v3.09c0,4.91,4,8.91,8.91,8.91h158.18c4.91,0,8.91-4,8.91-8.91v-3.09H40Z"/><polygon class="cls-2" points="212 88 204 88 204 56 52 56 52 120 44 120 44 48 212 48 212 88"/><rect x="44" y="128" width="8" height="44"/><rect x="204" y="96" width="8" height="76"/><rect class="cls-1" width="256" height="256"/><g><rect x="118.7" y="96.02" width="64" height="8"/><polygon class="cls-2" points="87.6 118.19 73.3 101.03 79.45 95.91 87.75 105.88 105.73 85.37 111.75 90.65 87.6 118.19"/></g><rect x="118.7" y="122.42" width="64" height="8"/><rect x="118.7" y="149.1" width="64" height="8"/></svg>