<svg id="esign" xmlns="http://www.w3.org/2000/svg" xmlns:xlink="http://www.w3.org/1999/xlink" width="64" height="64" viewBox="0 0 64 64">
  <defs>
    <clipPath id="clip-path">
      <rect id="Rectangle_634" data-name="Rectangle 634" width="64" height="64" fill="none"/>
    </clipPath>
  </defs>
  <g id="Group_3769" data-name="Group 3769" clip-path="url(#clip-path)">
    <path id="Path_8592" data-name="Path 8592" d="M75.772,187H36.228A4.232,4.232,0,0,1,32,182.772V180H80v2.772A4.232,4.232,0,0,1,75.772,187M34,182v.772A2.23,2.23,0,0,0,36.228,185H75.772A2.23,2.23,0,0,0,78,182.772V182Z" transform="translate(-24 -135)" fill="#040504"/>
    <path id="Path_8593" data-name="Path 8593" d="M79.924,48H44V79h2V50H84V79h2V48Z" transform="translate(-33 -36)" fill="#040504"/>
    <path id="Path_8594" data-name="Path 8594" d="M91.864,139.664a20.15,20.15,0,0,0-.621,2h5.236a8.588,8.588,0,0,0,.769-2Z" transform="translate(-68.432 -104.748)" fill="#050605"/>
    <path id="Path_8595" data-name="Path 8595" d="M75.32,139.664H72v2h2.765a18.216,18.216,0,0,1,.554-2" transform="translate(-54 -104.748)" fill="#050605"/>
    <path id="Path_8596" data-name="Path 8596" d="M121.6,139.664a11.132,11.132,0,0,1-.607,2h15.753v-2Z" transform="translate(-90.742 -104.748)" fill="#050605"/>
    <rect id="Rectangle_633" data-name="Rectangle 633" width="28" height="2" transform="translate(18 34.916)" fill="#050605"/>
    <path id="Path_8597" data-name="Path 8597" d="M76.523,99.965a3.469,3.469,0,0,1-.676-.064l-.067-.016a2.757,2.757,0,0,1-1.875-1.647c-.933-2.214.44-6,1.347-8.064A7.736,7.736,0,0,1,72,87.664a7.858,7.858,0,0,1-.689-7.228c.353-1.059,1.938-3.482,4.349-3.779,1.951-.241,3.764.929,5.388,3.477l.013.021a24.778,24.778,0,0,1,2.029,4.155l.086.016a5.071,5.071,0,0,1,3.494,2.408c.382.544.54.739.813.791.357.069,1.146-.032,2.891-.892a2.922,2.922,0,0,1,3.141.622c.09.065.206.148.308.216.019-.039.04-.086.063-.14l.03-.078c.814-2.173,1.119-2.986,1.93-3.332a2.484,2.484,0,0,1,2.033.29c.16.068.337.145.536.226a1,1,0,0,1-.751,1.854c-.214-.087-.4-.169-.575-.242-.149-.064-.321-.138-.455-.189-.2.365-.5,1.179-.846,2.1l-.035.093-.011.027a2.314,2.314,0,0,1-1.35,1.445,2.366,2.366,0,0,1-2.047-.643c-.653-.471-.866-.559-1.087-.451-3.689,1.819-4.947,1.275-6.224-.542A3.6,3.6,0,0,0,83.79,86.63a14.922,14.922,0,0,1,.383,3.081,11.257,11.257,0,0,1-1.959,6.707c-1.51,2.15-3.8,3.547-5.691,3.547m-.253-2.02c.887.148,2.841-.589,4.308-2.676a8.65,8.65,0,0,0,1.492-3.805,21.857,21.857,0,0,1-4.934-.64c-.883,1.985-1.975,5.243-1.387,6.638a.758.758,0,0,0,.521.484m1.815-8.951a20.819,20.819,0,0,0,4.071.471,14.259,14.259,0,0,0-.578-3.286c-1.668.059-2.526,1.143-3.493,2.816M76.134,78.628a1.838,1.838,0,0,0-.225.014,4.073,4.073,0,0,0-2.7,2.427c-.413,1.239-.908,3.59.414,5.425a5.855,5.855,0,0,0,2.51,1.877c.949-1.695,2.205-3.759,4.756-4.134A23.061,23.061,0,0,0,79.359,81.2c-.763-1.2-1.925-2.571-3.225-2.571" transform="translate(-53.075 -57.47)" fill="#59bae3"/>
  </g>
</svg>
