<?xml version="1.0" encoding="UTF-8"?>
<svg width="69px" height="69px" viewBox="0 0 69 69" version="1.1" xmlns="http://www.w3.org/2000/svg" xmlns:xlink="http://www.w3.org/1999/xlink">
    <!-- Generator: Sketch 52.5 (67469) - http://www.bohemiancoding.com/sketch -->
    <title>icon/no-management</title>
    <desc>Created with Sketch.</desc>
    <g id="006-1440-Investment" stroke="none" stroke-width="1" fill="none" fill-rule="evenodd">
        <g id="006-investors-darwin" transform="translate(-264.000000, -2604.000000)">
            <g id="our-promise" transform="translate(182.000000, 2446.000000)">
                <g id="Stacked-Group" transform="translate(0.000000, 160.000000)">
                    <g id="1-">
                        <g id="icon/no-management" transform="translate(84.000000, 0.000000)">
                            <g id="Group-29">
                                <g>
                                    <g id="Group-14">
                                        <path d="M9.52586207,20.3531702 L22.5403226,20.3531702 C22.9401557,20.3531702 23.2633482,20.6763626 23.2633482,21.0761958 L23.2633482,34.0906563 C23.2633482,34.4904894 22.9401557,34.8136819 22.5403226,34.8136819 L12.4179644,34.8136819" id="Stroke-3" stroke="#07335B" stroke-width="2.3" stroke-linejoin="round"></path>
                                        <path d="M32.6626808,20.3531702 L42.0620133,20.3531702 C42.8602336,20.3531702 43.5080645,21.0010011 43.5080645,21.7992214 L43.5080645,22.5222469 C43.5080645,23.3204672 42.8602336,23.9682981 42.0620133,23.9682981" id="Stroke-5" stroke="#07335B" stroke-width="2.3" stroke-linejoin="round"></path>
                                        <path d="M40.6159622,23.9682981 L42.7850389,23.9682981 C43.5832592,23.9682981 44.2310901,24.616129 44.2310901,25.4143493 L44.2310901,26.1373749 C44.2310901,26.9355951 43.5832592,27.583426 42.7850389,27.583426 L40.6159622,27.583426" id="Stroke-7" stroke="#07335B" stroke-width="2.3" stroke-linejoin="round"></path>
                                        <path d="M42.0620133,27.583426 C42.8602336,27.583426 43.5080645,28.231257 43.5080645,29.0294772 L43.5080645,29.7525028 C43.5080645,30.550723 42.8602336,31.1985539 42.0620133,31.1985539 L39.8929366,31.1985539" id="Stroke-9" stroke="#07335B" stroke-width="2.3" stroke-linejoin="round"></path>
                                        <path d="M23.2633482,33.3676307 L26.8784761,33.3676307 L32.6626808,34.8136819 L41.3389878,34.8136819 C42.137208,34.8136819 42.7850389,34.1658509 42.7850389,33.3676307 L42.7850389,32.6446051 C42.7850389,31.8463849 42.137208,31.1985539 41.3389878,31.1985539" id="Stroke-11" stroke="#07335B" stroke-width="2.3" stroke-linejoin="round"></path>
                                        <polyline id="Stroke-13" stroke="#07335B" stroke-width="2.3" stroke-linejoin="round" points="33.3857063 16.7380423 29.7705784 17.4610679 25.4324249 21.7992214 23.2633482 21.7992214"></polyline>
                                        <polygon id="Stroke-15" stroke="#07335B" stroke-width="2.3" stroke-linejoin="round" points="39.169911 20.3531702 34.8317575 20.3531702 33.3857063 14.5689655 40.6159622 14.5689655"></polygon>
                                        <path d="M41.3375417,34.7402225 C43.5080645,38.429099 49.2922692,42.7672525 49.2922692,48.5514572 C49.2922692,55.7390545 43.465406,59.3968409 36.2778087,59.3968409 C29.0902113,59.3968409 23.2633482,55.7390545 23.2633482,48.5514572 C23.2633482,42.7672525 29.0475528,38.429099 31.2159066,34.7409455" id="Stroke-17" stroke="#07335B" stroke-width="2.3"></path>
                                        <path d="M34.1087319,49.2741935 C34.1087319,50.4715239 35.0804783,51.4432703 36.2778087,51.4432703 C37.475139,51.4432703 38.4468854,50.4715239 38.4468854,49.2741935 C38.4468854,48.0768632 36.2778087,47.1051168 36.2778087,47.1051168 C36.2778087,47.1051168 34.1087319,46.1333704 34.1087319,44.93604 C34.1087319,43.7387097 35.0804783,42.7669633 36.2778087,42.7669633 C37.475139,42.7669633 38.4468854,43.7387097 38.4468854,44.93604" id="Stroke-19" stroke="#07335B" stroke-width="2.3"></path>
                                        <path d="M36.2778087,42.7669633 L36.2778087,40.5978865" id="Stroke-21" stroke="#011B34" stroke-width="2.3"></path>
                                        <path d="M36.2778087,51.4432703 L36.2778087,53.6123471" id="Stroke-23" stroke="#011B34" stroke-width="2.3"></path>
                                        <path d="M40.6159622,47.1051168 L42.0620133,47.1051168" id="Stroke-25" stroke="#011B34" stroke-width="2.3"></path>
                                        <path d="M30.493604,47.1051168 L31.9396552,47.1051168" id="Stroke-27" stroke="#011B34" stroke-width="2.3"></path>
                                        <circle id="Oval" stroke="#011B34" stroke-width="2.3" cx="32.5" cy="32.5" r="32.5"></circle>
                                        <polygon id="Rectangle-2" fill="#FFFFFF" transform="translate(32.985050, 32.985050) rotate(45.000000) translate(-32.985050, -32.985050) " points="28.0808598 5.54060562 37.8892403 5.54060562 37.8892403 60.4294945 28.0808598 60.4294945"></polygon>
                                        <path d="M10.4722222,55.25 L55.6241092,10.098113" id="Line-2" stroke="#011B34" stroke-width="2.3" stroke-linecap="square"></path>
                                    </g>
                                </g>
                            </g>
                        </g>
                    </g>
                </g>
            </g>
        </g>
    </g>
</svg>
