<?xml version="1.0" encoding="UTF-8"?>
<svg width="75px" height="68px" viewBox="0 0 75 68" version="1.1" xmlns="http://www.w3.org/2000/svg" xmlns:xlink="http://www.w3.org/1999/xlink">
    <!-- Generator: Sketch 52.5 (67469) - http://www.bohemiancoding.com/sketch -->
    <title>icon/invest</title>
    <desc>Created with Sketch.</desc>
    <g id="006-1440-Investment" stroke="none" stroke-width="1" fill="none" fill-rule="evenodd">
        <g id="006-investors-darwin" transform="translate(-1104.000000, -2604.000000)" stroke="#011B34">
            <g id="our-promise" transform="translate(182.000000, 2446.000000)">
                <g id="Stacked-Group" transform="translate(0.000000, 160.000000)">
                    <g id="4" transform="translate(843.000000, 0.000000)">
                        <g id="icon/invest" transform="translate(81.000000, 0.000000)">
                            <g>
                                <path d="M66.0759494,48 L66.0759494,64 L6.83544304,64 C3.06113924,64 0,60.9291429 0,57.1428571 L0,9.14285714" id="Stroke-1" stroke-width="2.3"></path>
                                <path d="M14.8101266,2.74285714 L6.83544304,2.74285714 C3.06113924,2.74285714 0,5.81371429 0,9.6 C0,13.3862857 3.06113924,16.4571429 6.83544304,16.4571429 L66.0759494,16.4571429 L66.0759494,32.4571429" id="Stroke-3" stroke-width="2.3"></path>
                                <polyline id="Stroke-5" stroke-width="2.3" points="66.7594937 13.0285714 66.7594937 2.74285714 61.0632911 2.74285714"></polyline>
                                <path d="M49.6708861,40 C49.6708861,41.8937143 48.1397468,43.4285714 46.2531646,43.4285714 C44.3665823,43.4285714 42.835443,41.8937143 42.835443,40 C42.835443,38.1062857 44.3665823,36.5714286 46.2531646,36.5714286 C48.1397468,36.5714286 49.6708861,38.1062857 49.6708861,40 Z" id="Stroke-7" stroke-width="2.3"></path>
                                <path d="M60.6075949,21.0285714 L58.3291139,21.0285714" id="Stroke-9" stroke-width="2.3"></path>
                                <path d="M56.0506329,21.0285714 L53.7721519,21.0285714" id="Stroke-11" stroke-width="2.3"></path>
                                <path d="M51.4936709,21.0285714 L49.2151899,21.0285714" id="Stroke-13" stroke-width="2.3"></path>
                                <path d="M46.9367089,21.0285714 L44.6582278,21.0285714" id="Stroke-15" stroke-width="2.3"></path>
                                <path d="M42.3797468,21.0285714 L40.1012658,21.0285714" id="Stroke-17" stroke-width="2.3"></path>
                                <path d="M37.8227848,21.0285714 L35.5443038,21.0285714" id="Stroke-19" stroke-width="2.3"></path>
                                <path d="M33.2658228,21.0285714 L30.9873418,21.0285714" id="Stroke-21" stroke-width="2.3"></path>
                                <path d="M28.7088608,21.0285714 L26.4303797,21.0285714" id="Stroke-23" stroke-width="2.3"></path>
                                <path d="M24.1518987,21.0285714 L21.8734177,21.0285714" id="Stroke-25" stroke-width="2.3"></path>
                                <path d="M19.5949367,21.0285714 L17.3164557,21.0285714" id="Stroke-27" stroke-width="2.3"></path>
                                <path d="M15.0379747,21.0285714 L12.7594937,21.0285714" id="Stroke-29" stroke-width="2.3"></path>
                                <path d="M10.4810127,21.0285714 L8.20253165,21.0285714" id="Stroke-31" stroke-width="2.3"></path>
                                <path d="M60.6075949,21.0285714 L58.3291139,21.0285714" id="Stroke-33" stroke-width="2.3"></path>
                                <path d="M56.0506329,21.0285714 L53.7721519,21.0285714" id="Stroke-35" stroke-width="2.3"></path>
                                <path d="M51.4936709,21.0285714 L49.2151899,21.0285714" id="Stroke-37" stroke-width="2.3"></path>
                                <path d="M46.9367089,21.0285714 L44.6582278,21.0285714" id="Stroke-39" stroke-width="2.3"></path>
                                <path d="M42.3797468,21.0285714 L40.1012658,21.0285714" id="Stroke-41" stroke-width="2.3"></path>
                                <path d="M37.8227848,21.0285714 L35.5443038,21.0285714" id="Stroke-43" stroke-width="2.3"></path>
                                <path d="M33.2658228,21.0285714 L30.9873418,21.0285714" id="Stroke-45" stroke-width="2.3"></path>
                                <path d="M28.7088608,21.0285714 L26.4303797,21.0285714" id="Stroke-47" stroke-width="2.3"></path>
                                <path d="M24.1518987,21.0285714 L21.8734177,21.0285714" id="Stroke-49" stroke-width="2.3"></path>
                                <path d="M19.5949367,21.0285714 L17.3164557,21.0285714" id="Stroke-51" stroke-width="2.3"></path>
                                <path d="M15.0379747,21.0285714 L12.7594937,21.0285714" id="Stroke-53" stroke-width="2.3"></path>
                                <path d="M10.4810127,21.0285714 L8.20253165,21.0285714" id="Stroke-55" stroke-width="2.3"></path>
                                <path d="M60.6075949,59.4285714 L58.3291139,59.4285714" id="Stroke-57" stroke-width="2.3"></path>
                                <path d="M56.0506329,59.4285714 L53.7721519,59.4285714" id="Stroke-59" stroke-width="2.3"></path>
                                <path d="M51.4936709,59.4285714 L49.2151899,59.4285714" id="Stroke-61" stroke-width="2.3"></path>
                                <path d="M46.9367089,59.4285714 L44.6582278,59.4285714" id="Stroke-63" stroke-width="2.3"></path>
                                <path d="M42.3797468,59.4285714 L40.1012658,59.4285714" id="Stroke-65" stroke-width="2.3"></path>
                                <path d="M37.8227848,59.4285714 L35.5443038,59.4285714" id="Stroke-67" stroke-width="2.3"></path>
                                <path d="M33.2658228,59.4285714 L30.9873418,59.4285714" id="Stroke-69" stroke-width="2.3"></path>
                                <path d="M28.7088608,59.4285714 L26.4303797,59.4285714" id="Stroke-71" stroke-width="2.3"></path>
                                <path d="M24.1518987,59.4285714 L21.8734177,59.4285714" id="Stroke-73" stroke-width="2.3"></path>
                                <path d="M19.5949367,59.4285714 L17.3164557,59.4285714" id="Stroke-75" stroke-width="2.3"></path>
                                <path d="M15.0379747,59.4285714 L12.7594937,59.4285714" id="Stroke-77" stroke-width="2.3"></path>
                                <path d="M10.4810127,59.4285714 L8.20253165,59.4285714" id="Stroke-79" stroke-width="2.3"></path>
                                <path d="M60.6075949,59.4285714 L58.3291139,59.4285714" id="Stroke-81" stroke-width="2.3"></path>
                                <path d="M56.0506329,59.4285714 L53.7721519,59.4285714" id="Stroke-83" stroke-width="2.3"></path>
                                <path d="M51.4936709,59.4285714 L49.2151899,59.4285714" id="Stroke-85" stroke-width="2.3"></path>
                                <path d="M46.9367089,59.4285714 L44.6582278,59.4285714" id="Stroke-87" stroke-width="2.3"></path>
                                <path d="M42.3797468,59.4285714 L40.1012658,59.4285714" id="Stroke-89" stroke-width="2.3"></path>
                                <path d="M37.8227848,59.4285714 L35.5443038,59.4285714" id="Stroke-91" stroke-width="2.3"></path>
                                <path d="M33.2658228,59.4285714 L30.9873418,59.4285714" id="Stroke-93" stroke-width="2.3"></path>
                                <path d="M28.7088608,59.4285714 L26.4303797,59.4285714" id="Stroke-95" stroke-width="2.3"></path>
                                <path d="M24.1518987,59.4285714 L21.8734177,59.4285714" id="Stroke-97" stroke-width="2.3"></path>
                                <path d="M19.5949367,59.4285714 L17.3164557,59.4285714" id="Stroke-99" stroke-width="2.3"></path>
                                <path d="M15.0379747,59.4285714 L12.7594937,59.4285714" id="Stroke-101" stroke-width="2.3"></path>
                                <path d="M10.4810127,59.4285714 L8.20253165,59.4285714" id="Stroke-103" stroke-width="2.3"></path>
                                <path d="M66.7594937,25.6 L67.8987342,25.6 C69.7853165,25.6 71.3164557,27.1348571 71.3164557,29.0285714 C71.3164557,30.9222857 69.7853165,32.4571429 67.8987342,32.4571429 L46.2531646,32.4571429 C41.8488608,32.4571429 38.278481,36.0388571 38.278481,40.4571429 C38.278481,44.8754286 41.8488608,48.4571429 46.2531646,48.4571429 L67.8987342,48.4571429 C69.7853165,48.4571429 71.3164557,46.9222857 71.3164557,45.0285714 L71.3164557,29.0285714" id="Stroke-105" stroke-width="2.3"></path>
                                <polyline id="Stroke-107" stroke-width="2.3" points="18.2278481 6.85714286 18.2278481 0 56.9620253 0 56.9620253 5.71428571"></polyline>
                                <polyline id="Stroke-109" stroke-width="2.3" points="50.5822785 10.7428571 50.5822785 7.31428571 11.8481013 7.31428571 11.8481013 10.7428571"></polyline>
                                <path d="M66.3037975,9.14285714 L53.7721519,9.14285714" id="Stroke-111" stroke-width="2.3"></path>
                                <path d="M31.8987342,0 L31.8987342,3.42857143" id="Stroke-113" stroke-width="2.3"></path>
                                <path d="M36.4556962,0 L36.4556962,3.42857143" id="Stroke-115" stroke-width="2.3"></path>
                                <path d="M41.0126582,0 L41.0126582,3.42857143" id="Stroke-117" stroke-width="2.3"></path>
                                <path d="M45.5696203,0 L45.5696203,3.42857143" id="Stroke-119" stroke-width="2.3"></path>
                                <path d="M50.1265823,0 L50.1265823,3.42857143" id="Stroke-121" stroke-width="2.3"></path>
                                <path d="M22.7848101,0 L22.7848101,3.42857143" id="Stroke-123" stroke-width="2.3"></path>
                                <path d="M25.5189873,7.31428571 L25.5189873,10.7428571" id="Stroke-125" stroke-width="2.3"></path>
                                <path d="M30.0759494,7.31428571 L30.0759494,10.7428571" id="Stroke-127" stroke-width="2.3"></path>
                                <path d="M34.6329114,7.31428571 L34.6329114,10.7428571" id="Stroke-129" stroke-width="2.3"></path>
                                <path d="M39.1898734,7.31428571 L39.1898734,10.7428571" id="Stroke-131" stroke-width="2.3"></path>
                                <path d="M43.7468354,7.31428571 L43.7468354,10.7428571" id="Stroke-133" stroke-width="2.3"></path>
                                <path d="M16.4050633,7.31428571 L16.4050633,10.7428571" id="Stroke-135" stroke-width="2.3"></path>
                            </g>
                        </g>
                    </g>
                </g>
            </g>
        </g>
    </g>
</svg>
