<?xml version="1.0" encoding="UTF-8"?>
<svg width="70px" height="70px" viewBox="0 0 70 70" version="1.1" xmlns="http://www.w3.org/2000/svg" xmlns:xlink="http://www.w3.org/1999/xlink">
    <!-- Generator: Sketch 52.5 (67469) - http://www.bohemiancoding.com/sketch -->
    <title>icon/free-training</title>
    <desc>Created with Sketch.</desc>
    <g id="006-1440-Investment" stroke="none" stroke-width="1" fill="none" fill-rule="evenodd">
        <g id="006-investors-darwin" transform="translate(-545.000000, -2604.000000)" stroke="#011B34">
            <g id="our-promise" transform="translate(182.000000, 2446.000000)">
                <g id="Stacked-Group" transform="translate(0.000000, 160.000000)">
                    <g id="2" transform="translate(281.000000, 0.000000)">
                        <g id="icon/free-training" transform="translate(84.000000, 0.000000)">
                            <g>
                                <g id="Group" stroke-linejoin="round" stroke-width="2.3">
                                    <polyline id="Path" points="12.7741935 21.5789474 0 16.1842105 33 0 66 16.1842105 53.2258065 21.5789474"></polyline>
                                    <path d="M12.7741935,34.5263158 L12.7741935,21.5789474 C12.7741935,18.0043947 21.8300323,15.1052632 33,15.1052632 C44.1699677,15.1052632 53.2258065,18.0043947 53.2258065,21.5789474 L53.2258065,34.5263158" id="Path"></path>
                                    <path d="M4.25806452,18.3421053 L4.25806452,34.5263158" id="Path"></path>
                                    <ellipse id="Oval" cx="4.25806452" cy="37.7631579" rx="3.19354839" ry="3.23684211"></ellipse>
                                </g>
                                <g id="Group" transform="translate(22.000000, 18.000000)" stroke-width="2.3">
                                    <path d="M17.7727273,45.8666667 C17.7727273,47.0442667 16.836,48 15.6818182,48 L7.31818182,48 C6.16295455,48 5.22727273,47.0442667 5.22727273,45.8666667 L5.22727273,30.9333333 C5.22727273,29.7557333 6.16295455,28.8 7.31818182,28.8 L15.6818182,28.8 C16.836,28.8 17.7727273,29.7557333 17.7727273,30.9333333 L17.7727273,45.8666667 Z" id="Path"></path>
                                    <path d="M11.5,32 L11.5,36.2666667" id="Path"></path>
                                    <path d="M11.5,0 L11.5,6.4 C11.5,8.16746667 10.0949091,9.6 8.36363636,9.6 L3.13636364,9.6 C1.40509091,9.6 0,11.0325333 0,12.8 C0,14.5674667 1.40509091,16 3.13636364,16 L19.8636364,16 C21.5949091,16 23,17.4325333 23,19.2 C23,20.9674667 21.5949091,22.4 19.8636364,22.4 L14.6363636,22.4 C12.9050909,22.4 11.5,23.8325333 11.5,25.6 L11.5,28.8" id="Path"></path>
                                </g>
                                <path d="M36,29 C45.5625,29 53,32.1072165 53,35.185567 C53,36.6247423 51.3945625,37.9505155 48.7043125,39" id="Path" stroke-width="2.3"></path>
                                <path d="M30,41 C20.4375,41 13,37.8708403 13,34.7603993 C13,33.3481697 14.5183125,32.0451331 17.077875,31" id="Path" stroke-width="2.3"></path>
                                <path d="M43,60.5 L45,60.5" id="Path" stroke-width="2.3" stroke-linejoin="round"></path>
                                <path d="M43,56.5 L45,56.5" id="Path" stroke-width="2.3" stroke-linejoin="round"></path>
                                <path d="M43,52.5 L45,52.5" id="Path" stroke-width="2.3" stroke-linejoin="round"></path>
                                <path d="M21,60.5 L23,60.5" id="Path" stroke-width="2.3" stroke-linejoin="round"></path>
                                <path d="M21,56.5 L23,56.5" id="Path" stroke-width="2.3" stroke-linejoin="round"></path>
                                <path d="M21,52.5 L23,52.5" id="Path" stroke-width="2.3" stroke-linejoin="round"></path>
                            </g>
                        </g>
                    </g>
                </g>
            </g>
        </g>
    </g>
</svg>
