<?xml version="1.0" encoding="UTF-8"?>
<svg width="64px" height="68px" viewBox="0 0 64 68" version="1.1" xmlns="http://www.w3.org/2000/svg" xmlns:xlink="http://www.w3.org/1999/xlink">
    <!-- Generator: Sketch 52.5 (67469) - http://www.bohemiancoding.com/sketch -->
    <title>icon/demo</title>
    <desc>Created with Sketch.</desc>
    <g id="006-1440-Investment" stroke="none" stroke-width="1" fill="none" fill-rule="evenodd" stroke-linejoin="round">
        <g id="006-investors-darwin" transform="translate(-829.000000, -2604.000000)" stroke="#011B34">
            <g id="our-promise" transform="translate(182.000000, 2446.000000)">
                <g id="Stacked-Group" transform="translate(0.000000, 160.000000)">
                    <g id="3" transform="translate(562.000000, 0.000000)">
                        <g id="icon/demo" transform="translate(87.000000, 0.000000)">
                            <g>
                                <polyline id="Stroke-1" stroke-width="2.3" points="8.25806452 49.5483871 8.25806452 40.2580645 13.4193548 28.9032258 23.7419355 18.5806452 20.6451613 21.6774194 14.4516129 18.5806452 2.06451613 21.6774194 0 17.5483871 10.3225806 7.22580645 17.5483871 4.12903226 17.5483871 0 33.0322581 7.22580645 37.1612903 14.4516129 37.1612903 21.6774194 33.0322581 40.2580645 33.0322581 49.5483871"></polyline>
                                <path d="M15.483871,9.29032258 L13.4193548,9.29032258" id="Stroke-3" stroke-width="2.3"></path>
                                <path d="M21.6774194,45.4193548 L19.6129032,45.4193548" id="Stroke-4" stroke-width="2.3"></path>
                                <path d="M25.8064516,45.4193548 L23.7419355,45.4193548" id="Stroke-5" stroke-width="2.3"></path>
                                <path d="M17.5483871,45.4193548 L15.483871,45.4193548" id="Stroke-6" stroke-width="2.3"></path>
                                <g id="Group-23" transform="translate(2.064516, 0.000000)" stroke-width="2.3">
                                    <path d="M3.09677419,53.6774194 C1.38735484,53.6774194 0,55.0637419 0,56.7741935 L0,64 L37.1612903,64 L37.1612903,56.7741935 C37.1612903,55.0637419 35.7739355,53.6774194 34.0645161,53.6774194 L33.0322581,53.6774194 L33.0322581,49.5483871 L4.12903226,49.5483871 L4.12903226,53.6774194 L3.09677419,53.6774194 Z" id="Stroke-7"></path>
                                    <path d="M40.2580645,64 L57.8064516,64 L57.8064516,56.7741935 C57.8064516,55.0637419 56.4190968,53.6774194 54.7096774,53.6774194 L53.6774194,53.6774194 L53.6774194,49.5483871 L36.1290323,49.5483871" id="Stroke-9"></path>
                                    <path d="M7.22580645,53.6774194 L29.9354839,53.6774194" id="Stroke-11"></path>
                                    <path d="M38.1935484,12.3870968 L51.6129032,12.3870968" id="Stroke-13"></path>
                                    <polyline id="Stroke-15" points="38.1935484 16.516129 50.5806452 16.516129 50.5806452 21.6774194 48.516129 25.8064516 48.516129 40.2580645 50.5806452 44.3870968 50.5806452 49.5483871"></polyline>
                                    <path d="M48.516129,12.3870968 L48.516129,16.516129" id="Stroke-17"></path>
                                    <polyline id="Stroke-19" points="32 3.09677419 32 0 38.1935484 0 38.1935484 4.12903226 44.3870968 4.12903226 44.3870968 0 50.5806452 0 50.5806452 12.3870968 38.1935484 12.3870968"></polyline>
                                    <path d="M48.516129,40.2580645 L36.1290323,40.2580645" id="Stroke-21"></path>
                                </g>
                            </g>
                        </g>
                    </g>
                </g>
            </g>
        </g>
    </g>
</svg>
