<?xml version="1.0" encoding="UTF-8"?><svg id="Layer_1" xmlns="http://www.w3.org/2000/svg" width="256" height="256" viewBox="0 0 256 256"><defs><style>.cls-1,.cls-2{fill:none;}.cls-3{fill:#71c5e7;}.cls-2{stroke:#000;stroke-miterlimit:10;stroke-width:8px;}</style></defs><rect class="cls-1" x="0" width="256" height="256"/><rect class="cls-1" x="34" y="32.4" width="192" height="192"/><g><path class="cls-3" d="m223.64,127.72c0-52.93-43.07-96-96-96S31.64,74.79,31.64,127.72s43.07,96,96,96c14.63,0,28.67-3.21,41.74-9.53l-3.48-7.2c-11.98,5.79-24.85,8.73-38.26,8.73-48.52,0-88-39.48-88-88S79.12,39.72,127.64,39.72s88,39.48,88,88c0,26.24-11.87,51.23-32,67.88v-23.88h-8v36h36v-8h-20.52c20.5-18.13,32.52-44.43,32.52-72Z"/><g><path d="m104.4,95.97c5.78,0,10.72,4.38,11.31,10.25.62,6.25-3.94,11.83-10.19,12.45-.38.04-.77.06-1.15.06-5.78,0-10.72-4.38-11.31-10.25-.62-6.25,3.94-11.83,10.19-12.45.38-.04.77-.06,1.14-.06m0-8h0c-.64,0-1.3.03-1.94.1-5.15.51-9.79,3-13.07,7.01-3.28,4.01-4.8,9.05-4.29,14.2.99,9.95,9.28,17.45,19.27,17.45.64,0,1.3-.03,1.94-.1,10.63-1.06,18.42-10.58,17.36-21.21-.99-9.95-9.28-17.45-19.27-17.45h0Z"/><path d="m153.29,138.36c5.78,0,10.72,4.38,11.31,10.25.62,6.25-3.94,11.83-10.19,12.45-.38.04-.77.06-1.15.06-5.78,0-10.72-4.38-11.31-10.25-.62-6.25,3.94-11.83,10.19-12.45.38-.04.77-.06,1.15-.06m0-8c-.64,0-1.3.03-1.94.1-5.15.51-9.79,3-13.07,7.01-3.28,4.01-4.8,9.05-4.29,14.2.99,9.95,9.28,17.45,19.27,17.45.64,0,1.3-.03,1.94-.1,10.63-1.06,18.42-10.58,17.36-21.21-.99-9.95-9.28-17.45-19.27-17.45h0Z"/><line class="cls-2" x1="99.41" y1="163.6" x2="158.7" y2="93.44"/></g></g></svg>