<?xml version="1.0" encoding="UTF-8"?><svg id="Layer_1" xmlns="http://www.w3.org/2000/svg" width="256" height="256" viewBox="0 0 256 256"><defs><style>.cls-1{fill:none;}.cls-2{fill:#72c5e7;}</style></defs><g><rect class="cls-1" x="0" y="-1" width="256" height="256"/><g><path d="m200,43v20.51c-18.13-20.5-44.44-32.51-72-32.51-52.93,0-96,43.07-96,96,0,14.62,3.21,28.67,9.53,41.74l7.2-3.48c-5.79-11.98-8.73-24.85-8.73-38.26,0-48.52,39.48-88,88-88,26.23,0,51.24,11.87,67.88,32h-23.88v8h36v-36h-8Z"/><path class="cls-2" d="m214.47,85.26l-7.2,3.48c5.79,11.98,8.73,24.85,8.73,38.26,0,48.52-39.48,88-88,88-26.24,0-51.23-11.87-67.88-32h23.88v-8h-36v36h8v-20.52c18.13,20.5,44.43,32.52,72,32.52,52.93,0,96-43.07,96-96,0-14.62-3.21-28.67-9.53-41.74Z"/><rect class="cls-1" x="32" y="31" width="192" height="192"/></g></g><path d="m128,173c-25.36,0-46-20.64-46-46s20.64-46,46-46,46,20.64,46,46-20.64,46-46,46Zm0-84c-20.95,0-38,17.05-38,38s17.05,38,38,38,38-17.05,38-38-17.05-38-38-38Z"/><path class="cls-2" d="m101.65,141.33c1.4,2.56,3.15,4.89,5.2,6.92,3.89-7.75,11.91-13.08,21.15-13.08s17.26,5.33,21.15,13.08c2.05-2.04,3.8-4.37,5.2-6.92-3.23-4.85-7.75-8.77-13.08-11.24,4.12-3.67,6.73-8.99,6.73-14.92,0-11.03-8.97-20-20-20s-20,8.97-20,20c0,5.93,2.61,11.25,6.73,14.92-5.33,2.47-9.85,6.39-13.08,11.24Zm26.35-38.16c6.62,0,12,5.38,12,12s-5.38,12-12,12-12-5.38-12-12,5.38-12,12-12Z"/></svg>