<?xml version="1.0" encoding="UTF-8"?><svg id="Layer_1" xmlns="http://www.w3.org/2000/svg" width="256" height="256" viewBox="0 0 256 256"><defs><style>.cls-1{fill:none;}.cls-2{fill:#72c5e8;}</style></defs><rect class="cls-1" width="256" height="256"/><g><polygon class="cls-2" points="39.95 168 31.95 168 31.95 44 224.05 44 224.05 72.08 216.05 72.08 216.05 52 39.95 52 39.95 168"/><polygon points="167.98 72.08 167.98 80.08 182.12 80.08 129.1 118.83 109.03 98.76 54.61 136.47 59.16 143.04 108.1 109.14 128.29 129.33 187.98 85.7 187.98 100.08 195.98 100.08 195.98 72.08 167.98 72.08"/><rect class="cls-1" x="31.95" y="32" width="192" height="192"/><polygon points="215.95 80.08 215.95 160 47.79 160 47.79 168 107.76 168 107.76 195.95 115.76 195.95 115.76 168 139.89 168 139.89 195.95 147.89 195.95 147.89 168 219.01 168 219.01 167.97 223.95 167.97 223.95 80.08 215.95 80.08"/><rect x="83.92" y="204.08" width="87.74" height="8"/></g></svg>